v 0.0 1.0 0.0
v 0.9807852804032304 1.0 0.19509032201612828
v 0.9238795325112867 1.0 0.3826834323650898
v 0.8314696123025452 1.0 0.5555702330196022
v 0.7071067811865476 1.0 0.7071067811865476
v 0.5555702330196022 1.0 0.8314696123025452
v 0.3826834323650898 1.0 0.9238795325112867
v 0.19509032201612828 1.0 0.9807852804032304
v 0.0 1.0 1.0
v -0.19509032201612828 1.0 0.9807852804032304
v -0.3826834323650898 1.0 0.9238795325112867
v -0.5555702330196022 1.0 0.8314696123025452
v -0.7071067811865476 1.0 0.7071067811865476
v -0.8314696123025452 1.0 0.5555702330196022
v -0.9238795325112867 1.0 0.3826834323650898
v -0.9807852804032304 1.0 0.19509032201612828
v -1.0 1.0 0.0
v -0.9807852804032304 1.0 -0.19509032201612828
v -0.9238795325112867 1.0 -0.3826834323650898
v -0.8314696123025452 1.0 -0.5555702330196022
v -0.7071067811865476 1.0 -0.7071067811865476
v -0.5555702330196022 1.0 -0.8314696123025452
v -0.3826834323650898 1.0 -0.9238795325112867
v -0.19509032201612828 1.0 -0.9807852804032304
v 0.0 1.0 -1.0
v 0.19509032201612828 1.0 -0.9807852804032304
v 0.3826834323650898 1.0 -0.9238795325112867
v 0.5555702330196022 1.0 -0.8314696123025452
v 0.7071067811865476 1.0 -0.7071067811865476
v 0.8314696123025452 1.0 -0.5555702330196022
v 0.9238795325112867 1.0 -0.3826834323650898
v 0.9807852804032304 1.0 -0.19509032201612828
v 1.0 1.0 0.0
v 0.0 -1.0 0.0
v 0.9807852804032304 -1.0 0.19509032201612828
v 0.9238795325112867 -1.0 0.3826834323650898
v 0.8314696123025452 -1.0 0.5555702330196022
v 0.7071067811865476 -1.0 0.7071067811865476
v 0.5555702330196022 -1.0 0.8314696123025452
v 0.3826834323650898 -1.0 0.9238795325112867
v 0.19509032201612828 -1.0 0.9807852804032304
v 0.0 -1.0 1.0
v -0.19509032201612828 -1.0 0.9807852804032304
v -0.3826834323650898 -1.0 0.9238795325112867
v -0.5555702330196022 -1.0 0.8314696123025452
v -0.7071067811865476 -1.0 0.7071067811865476
v -0.8314696123025452 -1.0 0.5555702330196022
v -0.9238795325112867 -1.0 0.3826834323650898
v -0.9807852804032304 -1.0 0.19509032201612828
v -1.0 -1.0 0.0
v -0.9807852804032304 -1.0 -0.19509032201612828
v -0.9238795325112867 -1.0 -0.3826834323650898
v -0.8314696123025452 -1.0 -0.5555702330196022
v -0.7071067811865476 -1.0 -0.7071067811865476
v -0.5555702330196022 -1.0 -0.8314696123025452
v -0.3826834323650898 -1.0 -0.9238795325112867
v -0.19509032201612828 -1.0 -0.9807852804032304
v 0.0 -1.0 -1.0
v 0.19509032201612828 -1.0 -0.9807852804032304
v 0.3826834323650898 -1.0 -0.9238795325112867
v 0.5555702330196022 -1.0 -0.8314696123025452
v 0.7071067811865476 -1.0 -0.7071067811865476
v 0.8314696123025452 -1.0 -0.5555702330196022
v 0.9238795325112867 -1.0 -0.3826834323650898
v 0.9807852804032304 -1.0 -0.19509032201612828
v 1.0 -1.0 0.0
vt 0.75 0.75
vt 0.9951963201008076 0.7987725805040321
vt 0.9809698831278217 0.8456708580912724
vt 0.9578674030756363 0.8888925582549005
vt 0.9267766952966369 0.9267766952966369
vt 0.8888925582549005 0.9578674030756363
vt 0.8456708580912724 0.9809698831278217
vt 0.7987725805040321 0.9951963201008076
vt 0.75 1.0
vt 0.7012274194959679 0.9951963201008076
vt 0.6543291419087276 0.9809698831278217
vt 0.6111074417450995 0.9578674030756363
vt 0.5732233047033631 0.9267766952966369
vt 0.5421325969243637 0.8888925582549005
vt 0.5190301168721783 0.8456708580912724
vt 0.5048036798991924 0.7987725805040321
vt 0.5 0.75
vt 0.5048036798991924 0.7012274194959679
vt 0.5190301168721783 0.6543291419087276
vt 0.5421325969243637 0.6111074417450995
vt 0.5732233047033631 0.5732233047033631
vt 0.6111074417450995 0.5421325969243637
vt 0.6543291419087276 0.5190301168721783
vt 0.7012274194959679 0.5048036798991924
vt 0.75 0.5
vt 0.7987725805040321 0.5048036798991924
vt 0.8456708580912724 0.5190301168721783
vt 0.8888925582549005 0.5421325969243637
vt 0.9267766952966369 0.5732233047033631
vt 0.9578674030756363 0.6111074417450995
vt 0.9809698831278217 0.6543291419087276
vt 0.9951963201008076 0.7012274194959679
vt 1.0 0.75
vt 0.25 0.75
vt 0.4951963201008076 0.7987725805040321
vt 0.4809698831278217 0.8456708580912724
vt 0.45786740307563634 0.8888925582549005
vt 0.42677669529663687 0.9267766952966369
vt 0.38889255825490054 0.9578674030756363
vt 0.34567085809127246 0.9809698831278217
vt 0.29877258050403205 0.9951963201008076
vt 0.25 1.0
vt 0.20122741949596792 0.9951963201008076
vt 0.15432914190872754 0.9809698831278217
vt 0.11110744174509946 0.9578674030756363
vt 0.0732233047033631 0.9267766952966369
vt 0.04213259692436369 0.8888925582549005
vt 0.019030116872178315 0.8456708580912724
vt 0.004803679899192392 0.7987725805040321
vt 0.0 0.75
vt 0.004803679899192392 0.7012274194959679
vt 0.019030116872178315 0.6543291419087276
vt 0.04213259692436369 0.6111074417450995
vt 0.0732233047033631 0.5732233047033631
vt 0.11110744174509946 0.5421325969243637
vt 0.15432914190872754 0.5190301168721783
vt 0.20122741949596792 0.5048036798991924
vt 0.25 0.5
vt 0.29877258050403205 0.5048036798991924
vt 0.34567085809127246 0.5190301168721783
vt 0.38889255825490054 0.5421325969243637
vt 0.42677669529663687 0.5732233047033631
vt 0.45786740307563634 0.6111074417450995
vt 0.4809698831278217 0.6543291419087276
vt 0.4951963201008076 0.7012274194959679
vt 0.5 0.75
vt 0.0 0.0
vt 0.0 0.5
vt 0.03125 0.0
vt 0.03125 0.5
vt 0.0625 0.0
vt 0.0625 0.5
vt 0.09375 0.0
vt 0.09375 0.5
vt 0.125 0.0
vt 0.125 0.5
vt 0.15625 0.0
vt 0.15625 0.5
vt 0.1875 0.0
vt 0.1875 0.5
vt 0.21875 0.0
vt 0.21875 0.5
vt 0.25 0.0
vt 0.25 0.5
vt 0.28125 0.0
vt 0.28125 0.5
vt 0.3125 0.0
vt 0.3125 0.5
vt 0.34375 0.0
vt 0.34375 0.5
vt 0.375 0.0
vt 0.375 0.5
vt 0.40625 0.0
vt 0.40625 0.5
vt 0.4375 0.0
vt 0.4375 0.5
vt 0.46875 0.0
vt 0.46875 0.5
vt 0.5 0.0
vt 0.5 0.5
vt 0.53125 0.0
vt 0.53125 0.5
vt 0.5625 0.0
vt 0.5625 0.5
vt 0.59375 0.0
vt 0.59375 0.5
vt 0.625 0.0
vt 0.625 0.5
vt 0.65625 0.0
vt 0.65625 0.5
vt 0.6875 0.0
vt 0.6875 0.5
vt 0.71875 0.0
vt 0.71875 0.5
vt 0.75 0.0
vt 0.75 0.5
vt 0.78125 0.0
vt 0.78125 0.5
vt 0.8125 0.0
vt 0.8125 0.5
vt 0.84375 0.0
vt 0.84375 0.5
vt 0.875 0.0
vt 0.875 0.5
vt 0.90625 0.0
vt 0.90625 0.5
vt 0.9375 0.0
vt 0.9375 0.5
vt 0.96875 0.0
vt 0.96875 0.5
vt 1.0 0.0
vt 1.0 0.5
vn 0.0 1.0 0.0
vn 0.0 -1.0 0.0
vn 0.9807852804032304 0.0 0.19509032201612828
vn 0.9238795325112867 0.0 0.3826834323650898
vn 0.8314696123025452 0.0 0.5555702330196022
vn 0.7071067811865476 0.0 0.7071067811865476
vn 0.5555702330196022 0.0 0.8314696123025452
vn 0.3826834323650898 0.0 0.9238795325112867
vn 0.19509032201612828 0.0 0.9807852804032304
vn 0.0 0.0 1.0
vn -0.19509032201612828 0.0 0.9807852804032304
vn -0.3826834323650898 0.0 0.9238795325112867
vn -0.5555702330196022 0.0 0.8314696123025452
vn -0.7071067811865476 0.0 0.7071067811865476
vn -0.8314696123025452 0.0 0.5555702330196022
vn -0.9238795325112867 0.0 0.3826834323650898
vn -0.9807852804032304 0.0 0.19509032201612828
vn -1.0 0.0 0.0
vn -0.9807852804032304 0.0 -0.19509032201612828
vn -0.9238795325112867 0.0 -0.3826834323650898
vn -0.8314696123025452 0.0 -0.5555702330196022
vn -0.7071067811865476 0.0 -0.7071067811865476
vn -0.5555702330196022 0.0 -0.8314696123025452
vn -0.3826834323650898 0.0 -0.9238795325112867
vn -0.19509032201612828 0.0 -0.9807852804032304
vn 0.0 0.0 -1.0
vn 0.19509032201612828 0.0 -0.9807852804032304
vn 0.3826834323650898 0.0 -0.9238795325112867
vn 0.5555702330196022 0.0 -0.8314696123025452
vn 0.7071067811865476 0.0 -0.7071067811865476
vn 0.8314696123025452 0.0 -0.5555702330196022
vn 0.9238795325112867 0.0 -0.3826834323650898
vn 0.9807852804032304 0.0 -0.19509032201612828
vn 1.0 0.0 0.0
f 1/1/1 3/3/1 2/2/1
f 1/1/1 4/4/1 3/3/1
f 1/1/1 5/5/1 4/4/1
f 1/1/1 6/6/1 5/5/1
f 1/1/1 7/7/1 6/6/1
f 1/1/1 8/8/1 7/7/1
f 1/1/1 9/9/1 8/8/1
f 1/1/1 10/10/1 9/9/1
f 1/1/1 11/11/1 10/10/1
f 1/1/1 12/12/1 11/11/1
f 1/1/1 13/13/1 12/12/1
f 1/1/1 14/14/1 13/13/1
f 1/1/1 15/15/1 14/14/1
f 1/1/1 16/16/1 15/15/1
f 1/1/1 17/17/1 16/16/1
f 1/1/1 18/18/1 17/17/1
f 1/1/1 19/19/1 18/18/1
f 1/1/1 20/20/1 19/19/1
f 1/1/1 21/21/1 20/20/1
f 1/1/1 22/22/1 21/21/1
f 1/1/1 23/23/1 22/22/1
f 1/1/1 24/24/1 23/23/1
f 1/1/1 25/25/1 24/24/1
f 1/1/1 26/26/1 25/25/1
f 1/1/1 27/27/1 26/26/1
f 1/1/1 28/28/1 27/27/1
f 1/1/1 29/29/1 28/28/1
f 1/1/1 30/30/1 29/29/1
f 1/1/1 31/31/1 30/30/1
f 1/1/1 32/32/1 31/31/1
f 1/1/1 33/33/1 32/32/1
f 1/1/1 2/2/1 33/33/1
f 34/34/2 34/34/2 35/35/2
f 34/34/2 35/35/2 36/36/2
f 34/34/2 36/36/2 37/37/2
f 34/34/2 37/37/2 38/38/2
f 34/34/2 38/38/2 39/39/2
f 34/34/2 39/39/2 40/40/2
f 34/34/2 40/40/2 41/41/2
f 34/34/2 41/41/2 42/42/2
f 34/34/2 42/42/2 43/43/2
f 34/34/2 43/43/2 44/44/2
f 34/34/2 44/44/2 45/45/2
f 34/34/2 45/45/2 46/46/2
f 34/34/2 46/46/2 47/47/2
f 34/34/2 47/47/2 48/48/2
f 34/34/2 48/48/2 49/49/2
f 34/34/2 49/49/2 50/50/2
f 34/34/2 50/50/2 51/51/2
f 34/34/2 51/51/2 52/52/2
f 34/34/2 52/52/2 53/53/2
f 34/34/2 53/53/2 54/54/2
f 34/34/2 54/54/2 55/55/2
f 34/34/2 55/55/2 56/56/2
f 34/34/2 56/56/2 57/57/2
f 34/34/2 57/57/2 58/58/2
f 34/34/2 58/58/2 59/59/2
f 34/34/2 59/59/2 60/60/2
f 34/34/2 60/60/2 61/61/2
f 34/34/2 61/61/2 62/62/2
f 34/34/2 62/62/2 63/63/2
f 34/34/2 63/63/2 64/64/2
f 34/34/2 64/64/2 65/65/2
f 34/34/2 65/65/2 66/66/2
f 34/34/2 66/66/2 67/67/2
f 34/34/2 66/66/2 35/35/2
f 2/132/3 3/130/4 35/131/3
f 3/130/4 4/128/5 36/129/4
f 4/128/5 5/126/6 37/127/5
f 5/126/6 6/124/7 38/125/6
f 6/124/7 7/122/8 39/123/7
f 7/122/8 8/120/9 40/121/8
f 8/120/9 9/118/10 41/119/9
f 9/118/10 10/116/11 42/117/10
f 10/116/11 11/114/12 43/115/11
f 11/114/12 12/112/13 44/113/12
f 12/112/13 13/110/14 45/111/13
f 13/110/14 14/108/15 46/109/14
f 14/108/15 15/106/16 47/107/15
f 15/106/16 16/104/17 48/105/16
f 16/104/17 17/102/18 49/103/17
f 17/102/18 18/100/19 50/101/18
f 18/100/19 19/98/20 51/99/19
f 19/98/20 20/96/21 52/97/20
f 20/96/21 21/94/22 53/95/21
f 21/94/22 22/92/23 54/93/22
f 22/92/23 23/90/24 55/91/23
f 23/90/24 24/88/25 56/89/24
f 24/88/25 25/86/26 57/87/25
f 25/86/26 26/84/27 58/85/26
f 26/84/27 27/82/28 59/83/27
f 27/82/28 28/80/29 60/81/28
f 28/80/29 29/78/30 61/79/29
f 29/78/30 30/76/31 62/77/30
f 30/76/31 31/74/32 63/75/31
f 31/74/32 32/72/33 64/73/32
f 32/72/33 33/70/34 65/71/33
f 33/70/34 2/68/3 66/69/34
f 36/129/4 35/131/3 3/130/4
f 37/127/5 36/129/4 4/128/5
f 38/125/6 37/127/5 5/126/6
f 39/123/7 38/125/6 6/124/7
f 40/121/8 39/123/7 7/122/8
f 41/119/9 40/121/8 8/120/9
f 42/117/10 41/119/9 9/118/10
f 43/115/11 42/117/10 10/116/11
f 44/113/12 43/115/11 11/114/12
f 45/111/13 44/113/12 12/112/13
f 46/109/14 45/111/13 13/110/14
f 47/107/15 46/109/14 14/108/15
f 48/105/16 47/107/15 15/106/16
f 49/103/17 48/105/16 16/104/17
f 50/101/18 49/103/17 17/102/18
f 51/99/19 50/101/18 18/100/19
f 52/97/20 51/99/19 19/98/20
f 53/95/21 52/97/20 20/96/21
f 54/93/22 53/95/21 21/94/22
f 55/91/23 54/93/22 22/92/23
f 56/89/24 55/91/23 23/90/24
f 57/87/25 56/89/24 24/88/25
f 58/85/26 57/87/25 25/86/26
f 59/83/27 58/85/26 26/84/27
f 60/81/28 59/83/27 27/82/28
f 61/79/29 60/81/28 28/80/29
f 62/77/30 61/79/29 29/78/30
f 63/75/31 62/77/30 30/76/31
f 64/73/32 63/75/31 31/74/32
f 65/71/33 64/73/32 32/72/33
f 66/69/34 65/71/33 33/70/34
f 2/68/3 35/67/3 66/69/34
